HIERARCHY
ROOT Hips
{
	OFFSET 0.000000 0.000000 0.000000
	CHANNELS 6 Xposition Yposition Zposition Xrotation Yrotation Zrotation
	JOINT LeftUpLeg_virtual
	{
		OFFSET 0.000000 0.000000 0.000000
		CHANNELS 3 Xrotation Yrotation Zrotation
		JOINT LeftUpLeg
		{
			OFFSET 15.427100 -6.655098 0.678600
			CHANNELS 3 Xrotation Yrotation Zrotation
			JOINT LeftLeg
			{
				OFFSET 4.081073 -39.591068 13.024000
				CHANNELS 3 Xrotation Yrotation Zrotation
				JOINT LeftFoot
				{
					OFFSET -4.081074 -37.707932 -15.979700
					CHANNELS 3 Xrotation Yrotation Zrotation
					JOINT LeftToeBase
					{
						OFFSET 5.346399 -15.068900 20.645000
						CHANNELS 3 Xrotation Yrotation Zrotation
						JOINT LeftToe_End
						{
							OFFSET 2.754700 0.931300 11.300900
							CHANNELS 3 Xrotation Yrotation Zrotation
							End Site
							{
								OFFSET 0 0 0
							}
						}
					}
				}
			}
		}
	}
	JOINT RightUpLeg_virtual
	{
		OFFSET 0.000000 0.000000 0.000000
		CHANNELS 3 Xrotation Yrotation Zrotation
		JOINT RightUpLeg
		{
			OFFSET -15.569500 -6.655098 0.678600
			CHANNELS 3 Xrotation Yrotation Zrotation
			JOINT RightLeg
			{
				OFFSET -4.081825 -39.591045 13.023800
				CHANNELS 3 Xrotation Yrotation Zrotation
				JOINT RightFoot
				{
					OFFSET 4.081824 -37.707954 -15.979600
					CHANNELS 3 Xrotation Yrotation Zrotation
					JOINT RightToeBase
					{
						OFFSET -5.346400 -15.068900 20.645000
						CHANNELS 3 Xrotation Yrotation Zrotation
						JOINT RightToe_End
						{
							OFFSET -2.754700 0.931300 11.300900
							CHANNELS 3 Xrotation Yrotation Zrotation
							End Site
							{
								OFFSET 0 0 0
							}
						}
					}
				}
			}
		}
	}
	JOINT Spine_virtual
	{
		OFFSET 0.000000 0.000000 0.000000
		CHANNELS 3 Xrotation Yrotation Zrotation
		JOINT Spine
		{
			OFFSET -0.279200 12.230698 -2.892100
			CHANNELS 3 Xrotation Yrotation Zrotation
			JOINT Spine1
			{
				OFFSET -0.232667 10.192268 -1.242267
				CHANNELS 3 Xrotation Yrotation Zrotation
				JOINT Spine1_split
				{
					OFFSET -0.232667 10.192268 -1.242267
					CHANNELS 3 Xrotation Yrotation Zrotation
					JOINT Spine2
					{
						OFFSET -0.232667 10.192268 -1.242267
						CHANNELS 3 Xrotation Yrotation Zrotation
						JOINT Neck_virtual
						{
							OFFSET 0.000000 0.000000 0.000000
							CHANNELS 3 Xrotation Yrotation Zrotation
							JOINT Neck
							{
								OFFSET -0.418800 17.814194 8.416900
								CHANNELS 3 Xrotation Yrotation Zrotation
								JOINT Head
								{
									OFFSET 0.000000 7.031097 3.806800
									CHANNELS 3 Xrotation Yrotation Zrotation
									JOINT HeadTop_End
									{
										OFFSET 0.000000 24.646606 12.978600
										CHANNELS 3 Xrotation Yrotation Zrotation
										End Site
										{
											OFFSET 0 0 0
										}
									}
								}
							}
						}
						JOINT LeftShoulder_virtual
						{
							OFFSET 0.000000 0.000000 0.000000
							CHANNELS 3 Xrotation Yrotation Zrotation
							JOINT LeftShoulder
							{
								OFFSET 8.476499 7.247704 -3.868750
								CHANNELS 3 Xrotation Yrotation Zrotation
								JOINT LeftShoulder_split
								{
									OFFSET 8.476499 7.247704 -3.868750
									CHANNELS 3 Xrotation Yrotation Zrotation
									JOINT LeftArm
									{
										OFFSET 9.308998 -2.777710 0.208600
										CHANNELS 3 Xrotation Yrotation Zrotation
										JOINT LeftForeArm
										{
											OFFSET 29.972298 0.000000 0.000000
											CHANNELS 3 Xrotation Yrotation Zrotation
											JOINT LeftHand
											{
												OFFSET 26.026505 0.000000 0.000000
												CHANNELS 3 Xrotation Yrotation Zrotation
												End Site
												{
													OFFSET 0 0 0
												}
											}
										}
									}
								}
							}
						}
						JOINT RightShoulder_virtual
						{
							OFFSET 0.000000 0.000000 0.000000
							CHANNELS 3 Xrotation Yrotation Zrotation
							JOINT RightShoulder
							{
								OFFSET -7.570500 7.247704 -3.868750
								CHANNELS 3 Xrotation Yrotation Zrotation
								JOINT RightShoulder_split
								{
									OFFSET -7.570500 7.247704 -3.868750
									CHANNELS 3 Xrotation Yrotation Zrotation
									JOINT RightArm
									{
										OFFSET -9.308998 -2.777710 0.208500
										CHANNELS 3 Xrotation Yrotation Zrotation
										JOINT RightForeArm
										{
											OFFSET -29.972300 0.000000 0.000000
											CHANNELS 3 Xrotation Yrotation Zrotation
											JOINT RightHand
											{
												OFFSET -26.026505 0.000000 0.000000
												CHANNELS 3 Xrotation Yrotation Zrotation
												End Site
												{
													OFFSET 0 0 0
												}
											}
										}
									}
								}
							}
						}
					}
				}
			}
		}
	}
}
MOTION
Frames: 4
Frame Time: 0.03333333
1.317882 91.609238 -2.617107 0.000000 0.000000 0.000000 2.639816 -32.254950 1.180509 -16.879761 15.663184 18.444856 22.179646 10.226671 -4.395397 -9.145677 -3.428839 -6.433015 3.348828 -0.579933 -0.885373 0.000000 0.000000 0.000000 3.873881 -32.690310 1.429085 -15.480952 2.826864 -10.682260 17.218121 6.763217 1.238360 -2.241632 -0.984394 5.006725 -3.786116 0.523340 0.060172 0.000000 0.000000 0.000000 4.052843 -30.767588 1.337760 8.789133 1.686197 -0.720417 0.689896 -0.852528 2.138781 0.131518 -0.755016 1.012018 0.000000 0.000000 0.000000 1.897439 -0.244408 2.308162 -4.528470 20.967979 -6.057488 -5.742172 12.915538 0.376934 0.000000 0.000000 0.000000 1.405543 -0.631718 2.728569 0.772338 -10.451910 -0.976563 2.128888 0.020251 0.884366 -59.866185 0.412132 -37.271492 7.000472 -59.946863 9.245993 0.000000 0.000000 0.000000 0.388290 -0.652461 2.911607 4.059654 7.826134 7.033283 -2.376949 -2.953772 -2.005201 -1.207900 2.659707 65.257410 13.229311 24.441900 -4.242258 0.000000 0.000000 0.000000 
1.321085 91.486084 -2.733528 0.000000 0.000000 0.000000 2.648246 -32.654390 1.408469 -17.023258 15.868891 18.397243 22.330159 10.013688 -4.358561 -9.135974 -3.786081 -6.521859 3.108928 -0.538556 -0.880749 0.000000 0.000000 0.000000 3.957009 -32.922236 1.623560 -15.523241 2.358142 -10.886487 17.393449 6.631799 1.270061 -2.169364 -0.913094 5.322465 -4.294555 0.419936 0.191670 0.000000 0.000000 0.000000 3.958027 -30.822526 1.372989 8.787920 1.643903 -0.816747 0.620488 -0.896646 2.171548 0.225015 -1.019863 1.211034 0.000000 0.000000 0.000000 1.932077 -0.290954 2.382028 -4.122887 21.460912 -6.132108 -5.763004 13.414111 0.146273 0.000000 0.000000 0.000000 1.262510 -0.664825 2.743543 0.733928 -9.846231 -1.209929 2.089828 -0.236044 0.985838 -59.756744 0.668474 -36.921540 6.954394 -59.983322 9.032394 0.000000 0.000000 0.000000 0.317264 -0.715998 2.978629 3.954840 7.808693 7.361329 -2.351600 -3.375971 -1.936147 -0.514922 2.603928 64.862850 13.290746 24.279028 -4.272726 0.000000 0.000000 0.000000 
1.356347 91.297035 -2.904160 0.000000 0.000000 0.000000 2.899743 -32.668945 1.709749 -17.407651 15.947629 18.316160 22.721589 9.769706 -4.249897 -8.894356 -4.468773 -6.584045 2.917200 -0.469384 -0.905532 0.000000 0.000000 0.000000 4.029558 -32.901397 1.925672 -15.528606 1.837195 -11.354672 18.050544 6.477948 1.315278 -2.866644 -0.785477 5.811626 -4.030454 0.358644 0.309777 0.000000 0.000000 0.000000 3.989928 -30.704887 1.502168 8.612628 1.558404 -1.008702 0.549656 -0.899138 2.232255 0.407887 -1.253164 1.288355 0.000000 0.000000 0.000000 1.884381 -0.305119 2.492347 -3.863802 22.534030 -6.133346 -5.680594 15.043015 -0.295095 0.000000 0.000000 0.000000 1.147654 -0.659716 2.767708 0.704719 -8.720422 -1.340184 2.118354 -0.487746 1.025035 -59.532113 1.425776 -36.230032 6.490154 -60.257227 8.447162 0.000000 0.000000 0.000000 0.297514 -0.729930 3.055821 3.894781 7.853952 7.742405 -2.360486 -3.406579 -1.881486 0.461314 2.383576 64.298588 13.348335 24.280568 -4.269958 0.000000 0.000000 0.000000 
1.428315 91.099724 -3.028328 0.000000 0.000000 0.000000 3.335786 -32.259369 1.995512 -18.006798 15.874067 18.233730 23.168413 9.606848 -4.080972 -8.500719 -5.365629 -6.551821 2.920755 -0.373216 -0.987170 0.000000 0.000000 0.000000 4.184270 -32.510683 2.235261 -15.487094 1.427219 -11.962204 18.936561 6.339949 1.386638 -4.094012 -0.519768 6.742596 -3.222150 0.366632 0.272702 0.000000 0.000000 0.000000 4.122171 -30.404655 1.638638 8.324975 1.465042 -1.213123 0.480744 -0.827319 2.292693 0.374470 -1.377304 1.204405 0.000000 0.000000 0.000000 1.737455 -0.256734 2.596262 -3.758411 24.091296 -6.126463 -5.494834 17.582618 -0.924530 0.000000 0.000000 0.000000 1.083673 -0.590725 2.770903 0.685331 -7.174012 -1.366281 2.217810 -0.595675 1.138967 -59.169936 2.645862 -35.137563 5.653361 -60.636767 7.556014 0.000000 0.000000 0.000000 0.320810 -0.656012 3.105432 3.872239 7.988833 8.098470 -2.281692 -3.026348 -1.886314 1.466986 2.105226 63.718514 13.401075 24.386002 -4.228861 0.000000 0.000000 0.000000 
